<?xml version="1.0" encoding="UTF-8"?>
<svg id="svg1" xmlns="http://www.w3.org/2000/svg" xmlns:xlink="http://www.w3.org/1999/xlink" xmlns:svg="http://www.w3.org/2000/svg" xmlns:sodipodi="http://sodipodi.sourceforge.net/DTD/sodipodi-0.dtd" xmlns:rdf="http://www.w3.org/1999/02/22-rdf-syntax-ns#" xmlns:inkscape="http://www.inkscape.org/namespaces/inkscape" xmlns:dc="http://purl.org/dc/elements/1.1/" xmlns:cc="http://creativecommons.org/ns#" version="1.1" viewBox="0 0 500 281">
  <!-- Generator: Adobe Illustrator 29.1.0, SVG Export Plug-In . SVG Version: 2.1.0 Build 142)  -->
  <defs>
    <style>
      .st0 {
        stroke: #cd5049;
      }

      .st0, .st1, .st2, .st3, .st4, .st5, .st6, .st7, .st8, .st9, .st10 {
        stroke-miterlimit: 28.35;
      }

      .st0, .st2, .st3, .st4, .st5, .st6, .st7, .st8, .st9, .st10 {
        fill: none;
      }

      .st0, .st2, .st5, .st6, .st7, .st8, .st9, .st10 {
        stroke-width: 4.5px;
      }

      .st11 {
        fill: #ff8820;
      }

      .st12 {
        fill: #002296;
      }

      .st13 {
        font-size: 47.33px;
      }

      .st13, .st14, .st15, .st16, .st17, .st18, .st19, .st20 {
        isolation: isolate;
      }

      .st13, .st17, .st18, .st20 {
        font-family: MavenPro-Bold, 'Maven Pro';
        font-weight: 700;
      }

      .st14 {
        font-family: MavenPro-Regular, 'Maven Pro';
      }

      .st14, .st15, .st18, .st19, .st20 {
        font-size: 9px;
      }

      .st14, .st19, .st20 {
        fill: #040404;
      }

      .st1 {
        stroke: #1f1d1d;
      }

      .st1, .st21, .st15 {
        fill: #fff;
      }

      .st1, .st4 {
        stroke-width: .75px;
      }

      .st2, .st21, .st22, .st23 {
        stroke: #040404;
      }

      .st24 {
        fill: #c0007a;
      }

      .st25 {
        fill: url(#linear-gradient);
      }

      .st21, .st22, .st23 {
        stroke-miterlimit: 3;
        stroke-width: .75px;
      }

      .st3 {
        stroke-width: .73px;
      }

      .st3, .st4 {
        stroke: #469e4f;
      }

      .st5 {
        stroke: #c83466;
      }

      .st15 {
        font-family: Helvetica, Helvetica;
      }

      .st26 {
        fill: #24af63;
      }

      .st27 {
        fill: #f6ba00;
      }

      .st6 {
        stroke: #283783;
      }

      .st17 {
        font-size: 12px;
      }

      .st7 {
        stroke: #7a307f;
      }

      .st8 {
        stroke: #b8327c;
      }

      .st9 {
        stroke: #edb93b;
      }

      .st28 {
        fill: #82008f;
      }

      .st19 {
        font-family: MavenPro-SemiBold, 'Maven Pro';
        font-weight: 600;
      }

      .st29 {
        fill: #ff5341;
      }

      .st30 {
        fill: #050505;
        letter-spacing: 0em;
      }

      .st10 {
        stroke: #da8233;
      }

      .st22 {
        fill: #1f1d1d;
      }

      .st31 {
        fill: #ea0c5f;
      }

      .st23 {
        fill: #3a393b;
      }
    </style>
    <linearGradient id="linear-gradient" x1="99.67" y1="240.14" x2="99.9" y2="240.14" gradientTransform="translate(-10535.37 6385.83) rotate(38) scale(48.14 -48.14)" gradientUnits="userSpaceOnUse">
      <stop offset="0" stop-color="#0c542a"/>
      <stop offset=".21" stop-color="#0c542a"/>
      <stop offset=".58" stop-color="#25af64"/>
      <stop offset=".85" stop-color="#25af64"/>
      <stop offset="1" stop-color="#25af64"/>
    </linearGradient>
  </defs>
  <sodipodi:namedview id="base" bordercolor="#000000" borderopacity="0.3" inkscape:current-layer="svg1" inkscape:cx="585.08065" inkscape:cy="229.83871" inkscape:deskcolor="#d1d1d1" inkscape:document-units="pt" inkscape:pagecheckerboard="0" inkscape:pageopacity="0.0" inkscape:pageshadow="2" inkscape:showpageshadow="0" inkscape:window-height="1387" inkscape:window-maximized="0" inkscape:window-width="3392" inkscape:window-x="1191" inkscape:window-y="25" inkscape:zoom="1.24" pagecolor="#ffffff"/>
  <path id="rect1" class="st28" d="M67.61,167.23h0c3.11,0,5.63,2.52,5.63,5.63h0c0,3.11-2.52,5.63-5.63,5.63h0c-3.11,0-5.63-2.52-5.63-5.63h0c0-3.11,2.52-5.63,5.63-5.63Z"/>
  <g id="text1" class="st16">
    <text class="st18" transform="translate(78.83 175.46)"><tspan x="0" y="0">BWA ( Meth / mem2 )</tspan></text>
  </g>
  <path id="rect2" class="st12" d="M67.61,150.82h0c3.11,0,5.63,2.52,5.63,5.63h0c0,3.11-2.52,5.63-5.63,5.63h0c-3.11,0-5.63-2.52-5.63-5.63h0c0-3.11,2.52-5.63,5.63-5.63Z"/>
  <g id="text2" class="st16">
    <text class="st18" transform="translate(78.83 158.98)"><tspan x="0" y="0">FastQC &amp; cat</tspan></text>
  </g>
  <path id="rect3" d="M56.36,125.79h0c4.14,0,7.5,3.36,7.5,7.5h0c0,4.14-3.36,7.5-7.5,7.5h0c-4.14,0-7.5-3.36-7.5-7.5h0c0-4.14,3.36-7.5,7.5-7.5Z"/>
  <g id="text3" class="st16">
    <text class="st17" transform="translate(68.93 137.87)"><tspan x="0" y="0">cfDNA TAPS-Methylated Analysis</tspan></text>
  </g>
  <path id="rect4" class="st24" d="M67.61,183.64h0c3.11,0,5.63,2.52,5.63,5.63h0c0,3.11-2.52,5.63-5.63,5.63h0c-3.11,0-5.63-2.52-5.63-5.63h0c0-3.11,2.52-5.63,5.63-5.63Z"/>
  <g id="text4" class="st16">
    <text class="st18" transform="translate(78.83 257.82)"><tspan x="0" y="0">asTair</tspan></text>
  </g>
  <path id="rect5" class="st31" d="M67.61,200.05h0c3.11,0,5.63,2.52,5.63,5.63h0c0,3.11-2.52,5.63-5.63,5.63h0c-3.11,0-5.63-2.52-5.63-5.63h0c0-3.11,2.52-5.63,5.63-5.63Z"/>
  <g id="text5" class="st16">
    <text class="st18" transform="translate(78.83 241.35)"><tspan x="0" y="0">rasTair</tspan></text>
  </g>
  <path id="rect6" class="st29" d="M67.61,216.46h0c3.11,0,5.63,2.52,5.63,5.63h0c0,3.11-2.52,5.63-5.63,5.63h0c-3.11,0-5.63-2.52-5.63-5.63h0c0-3.11,2.52-5.63,5.63-5.63Z"/>
  <path id="rect7" class="st11" d="M67.61,232.87h0c3.11,0,5.63,2.52,5.63,5.63h0c0,3.11-2.52,5.63-5.63,5.63h0c-3.11,0-5.63-2.52-5.63-5.63h0c0-3.11,2.52-5.63,5.63-5.63Z"/>
  <path id="rect8" class="st27" d="M67.61,249.28h0c3.11,0,5.63,2.52,5.63,5.63h0c0,3.11-2.52,5.63-5.63,5.63h0c-3.11,0-5.63-2.52-5.63-5.63h0c0-3.11,2.52-5.63,5.63-5.63Z"/>
  <g id="text8" class="st16">
    <text class="st18" transform="translate(78.83 224.87)"><tspan x="0" y="0">PyMbias</tspan></text>
  </g>
  <g id="text9" class="st16">
    <text class="st18" transform="translate(78.83 208.4)"><tspan x="0" y="0">BedTools Intersect</tspan></text>
  </g>
  <g id="text10" class="st16">
    <text class="st18" transform="translate(78.83 191.93)"><tspan x="0" y="0">GATK4 MarkDuplicates</tspan></text>
  </g>
  <path id="path1-5" class="st3" d="M415.86,58.35h-23.98v14.64l-31.58.1v-14.79l-24.1.02v14.74l-31.58.1v-.09l.04-14.81h-165.53v14.74l-31.57.1v-.09s.11-14.83.06-14.67l-23.8-.03" inkscape:label="path12"/>
  <path id="path1" class="st4" d="M415.86,58.35h-23.98v-15.55l-31.58-.1v15.61l-24.1.02v-15.59l-31.58-.1v.1l.04,15.52h-165.53v-15.45l-31.57-.1v.1s.11,15.72.06,15.54l-23.8-.04" inkscape:label="path11"/>
  <path id="path2" class="st6" d="M168.83,57.89h-29.75,29.75Z"/>
  <path id="path3" class="st5" d="M274.84,57.92h-35.38,35.38Z"/>
  <path id="path4" class="st0" d="M304.6,57.92h-29.75,29.75Z"/>
  <path id="path5" class="st10" d="M360.23,57.92h-24.13,24.13Z"/>
  <path id="path6" class="st2" d="M107.57,58.08l-25.91-.12,25.91.12Z"/>
  <path id="path7" class="st7" d="M204.21,57.93h-35.38,35.38Z"/>
  <path id="path8" class="st6" d="M108.14,42.21h30.36c.31,0,.57.26.57.57v30.35c0,.32-.26.57-.57.57h-30.36c-.32,0-.57-.26-.57-.57v-30.35c0-.31.26-.57.57-.57Z"/>
  <path id="path9" class="st9" d="M432.79,57.92h-41.06,41.06Z"/>
  <path id="path10" class="st9" d="M360.79,42.21h30.36c.31,0,.57.26.57.57v30.35c0,.32-.26.57-.57.57h-30.36c-.31,0-.57-.26-.57-.57v-30.35c0-.31.26-.57.57-.57h0Z"/>
  <g id="text10-2" class="st16">
    <g id="g2" class="st16">
      <g id="text1-3" class="st16">
        <text class="st19" transform="translate(108.19 30.38)"><tspan x="0" y="0">FastQC</tspan></text>
      </g>
    </g>
  </g>
  <g id="text14" class="st16">
    <g id="g3" class="st16">
      <g id="text2-9" class="st16">
        <text class="st19" transform="translate(220.06 34.58)"><tspan x="0" y="0">BedTools</tspan></text>
      </g>
    </g>
    <g id="g4" class="st16">
      <g id="text3-0" class="st16">
        <text class="st14" transform="translate(221.67 45.38)"><tspan x="0" y="0">intersect</tspan></text>
      </g>
    </g>
  </g>
  <g id="text19" class="st16">
    <g id="g7" class="st16">
      <g id="text6" class="st16">
        <text class="st19" transform="translate(305.52 30.38)"><tspan x="0" y="0">rasTair</tspan></text>
      </g>
    </g>
  </g>
  <g id="text20" class="st16">
    <g id="g8" class="st16">
      <g id="text7" class="st16">
        <text class="st19" transform="translate(116.73 90.24)"><tspan x="0" y="0">cat</tspan></text>
      </g>
    </g>
  </g>
  <g id="g24">
    <g id="g23">
      <rect id="rect20" class="st21" x="51.3" y="39.21" width="28.57" height="35.71"/>
      <rect id="rect21" class="st23" x="49.51" y="53.5" width="32.15" height="14.29"/>
      <rect id="rect22" class="st21" x="53.08" y="41" width="28.57" height="35.72"/>
      <rect id="rect23" class="st22" x="51.3" y="55.28" width="32.14" height="14.29"/>
    </g>
    <g id="text23" class="st16">
      <g id="g9" class="st16">
        <g id="text8-9" class="st16">
          <text class="st15" transform="translate(58.72 65.09)"><tspan x="0" y="0">fastq</tspan></text>
        </g>
      </g>
    </g>
  </g>
  <path id="rect24" class="st1" d="M123.32,68.21h0c3.11,0,5.63,2.52,5.63,5.63h0c0,3.11-2.52,5.63-5.63,5.63h0c-3.1,0-5.62-2.52-5.62-5.63h0c0-3.11,2.52-5.63,5.62-5.63Z"/>
  <path id="rect25" class="st1" d="M123.32,36.71h0c3.11,0,5.63,2.52,5.63,5.63h0c0,3.1-2.52,5.63-5.63,5.63h0c-3.1,0-5.62-2.52-5.62-5.63h0c0-3.11,2.52-5.63,5.62-5.63Z"/>
  <path id="rect26" class="st1" d="M375.98,36.55h0c3.1,0,5.63,2.52,5.63,5.63h0c0,3.11-2.52,5.62-5.63,5.62h0c-3.11,0-5.63-2.52-5.63-5.63h0c0-3.11,2.52-5.63,5.63-5.62Z"/>
  <path id="rect27" class="st1" d="M375.98,68.05h0c3.1,0,5.63,2.52,5.63,5.63h0c0,3.11-2.52,5.63-5.63,5.63h0c-3.11,0-5.63-2.52-5.63-5.63h0c0-3.11,2.52-5.63,5.63-5.63Z"/>
  <path id="path27" class="st10" d="M305.17,42.21h30.36c.32,0,.57.26.57.57v30.35c0,.32-.26.57-.57.57h-30.36c-.32,0-.57-.26-.57-.57v-30.35c0-.31.26-.57.57-.57Z"/>
  <path id="rect28" class="st1" d="M320.35,36.55h0c3.11,0,5.63,2.52,5.63,5.63h0c0,3.11-2.52,5.62-5.63,5.62h0c-3.1,0-5.62-2.52-5.62-5.63h0c0-3.11,2.52-5.63,5.62-5.62Z"/>
  <path id="rect29" class="st1" d="M320.35,68.05h0c3.11,0,5.63,2.52,5.63,5.63h0c0,3.11-2.52,5.63-5.63,5.63h0c-3.1,0-5.62-2.52-5.62-5.63h0c0-3.11,2.52-5.63,5.62-5.63Z"/>
  <g id="text32" class="st16">
    <g id="g10" class="st16">
      <g id="text9-6" class="st16">
        <text class="st19" transform="translate(305.52 90.24)"><tspan x="0" y="0">rasTair</tspan></text>
      </g>
    </g>
    <g id="g11" class="st16">
      <g id="text11" class="st16">
        <text class="st14" transform="translate(302.56 101.04)"><tspan x="0" y="0">intersect</tspan></text>
      </g>
    </g>
  </g>
  <g id="text33" class="st16">
    <g id="g12" class="st16">
      <g id="text12" class="st16">
        <text class="st19" transform="translate(363.01 30.38)"><tspan x="0" y="0">asTair</tspan></text>
      </g>
    </g>
  </g>
  <g id="text37" class="st16">
    <g id="g13" class="st16">
      <g id="text13" class="st16">
        <text class="st19" transform="translate(363.01 90.24)"><tspan x="0" y="0">asTair</tspan></text>
      </g>
    </g>
    <g id="g15" class="st16">
      <g id="text15" class="st16">
        <text class="st14" transform="translate(358.18 101.04)"><tspan x="0" y="0">intersect</tspan></text>
      </g>
    </g>
  </g>
  <g id="g41">
    <g id="g40">
      <rect id="rect37" class="st21" x="417.64" y="39.21" width="28.57" height="35.71"/>
      <rect id="rect38" class="st23" x="415.86" y="53.5" width="32.14" height="14.29"/>
      <rect id="rect39" class="st21" x="419.43" y="41" width="28.57" height="35.72"/>
      <rect id="rect40" class="st22" x="417.64" y="55.28" width="32.14" height="14.29"/>
    </g>
    <g id="text40" class="st16">
      <g id="g16" class="st16">
        <g id="text16" class="st16">
          <text class="st15" transform="translate(428.06 65.09)"><tspan x="0" y="0">tsv</tspan></text>
        </g>
      </g>
    </g>
  </g>
  <path id="rect41" class="st1" d="M168.83,52.34h0c3.1,0,5.62,2.52,5.62,5.63h0c0,3.1-2.52,5.63-5.62,5.63h0c-3.11,0-5.63-2.52-5.63-5.63h0c0-3.11,2.52-5.63,5.63-5.63Z"/>
  <path id="rect42" class="st1" d="M274.84,52.34h0c3.11,0,5.63,2.52,5.63,5.63h0c0,3.1-2.52,5.63-5.63,5.63h0c-3.1,0-5.62-2.52-5.62-5.63h0c0-3.11,2.52-5.63,5.62-5.63Z"/>
  <g id="text42" class="st16">
    <g id="g17" class="st16">
      <g id="text17" class="st16">
        <text class="st19" transform="translate(257 79.3)"><tspan x="0" y="0">PyMbias</tspan></text>
      </g>
    </g>
  </g>
  <path id="path42" class="st8" d="M239.46,57.89h-35.25,35.25Z"/>
  <path id="rect43" class="st1" d="M204.08,52.3h0c3.1,0,5.62,2.52,5.62,5.63h0c0,3.11-2.52,5.63-5.62,5.63h0c-3.11,0-5.63-2.52-5.63-5.63h0c0-3.11,2.52-5.63,5.63-5.63Z"/>
  <path id="rect44" class="st1" d="M239.46,52.34h0c3.11,0,5.63,2.52,5.63,5.63h0c0,3.1-2.52,5.63-5.63,5.63h0c-3.1,0-5.62-2.52-5.62-5.63h0c0-3.11,2.52-5.63,5.62-5.63Z"/>
  <g id="text47" class="st16">
    <g id="g21" class="st16">
      <g id="text21" class="st16">
        <text class="st19" transform="translate(189.67 79.29)"><tspan x="0" y="0">GATK4</tspan></text>
      </g>
    </g>
    <g id="g22" class="st16">
      <g id="text22" class="st16">
        <text class="st14" transform="translate(173.05 90.09)"><tspan x="0" y="0">MarkDuplicates</tspan></text>
      </g>
    </g>
  </g>
  <circle id="circle61" cx=".01" cy="-.63" r="3.44">
    <animateMotion accumulate="none" additive="replace" begin="0s" calcMode="paced" dur="10s" fill="remove" keyPoints="1;0" keyTimes="0;1" repeatCount="indefinite" restart="always">
      <mpath href="#path1"/>
    </animateMotion>
  </circle>
  <circle id="circle62" cx=".01" cy="-.63" r="3.44">
    <animateMotion accumulate="none" additive="replace" begin="0s" calcMode="paced" dur="10s" fill="remove" keyPoints="1;0" keyTimes="0;1" repeatCount="indefinite" restart="always">
      <mpath href="#path1-5"/>
    </animateMotion>
  </circle>
  <g id="g6" class="st16">
    <g id="text4-6" class="st16">
      <text class="st20" transform="translate(158.16 45.08)"><tspan x="0" y="0">BWA</tspan></text>
    </g>
  </g>
  <g>
    <g id="text69" class="st16">
      <text class="st13" transform="translate(267.5 246.97)"><tspan class="st26" x="0" y="0">CTA-</tspan><tspan class="st30" x="112.26" y="0">inn</tspan></text>
    </g>
    <path id="path67" class="st25" d="M364.27,230.02l-4.86,4.87h13.78v-4.87h-8.92Z"/>
  </g>
</svg>